<?xml version="1.0" encoding="UTF-8"?>
<svg width="512px" height="512px" viewBox="0 0 512 512" version="1.1" xmlns="http://www.w3.org/2000/svg" xmlns:xlink="http://www.w3.org/1999/xlink">
    <!-- Generator: Sketch 42 (36781) - http://www.bohemiancoding.com/sketch -->
    <title>confetti</title>
    <desc>Created with Sketch.</desc>
    <defs></defs>
    <g id="Page-1" stroke="none" stroke-width="1" fill="none" fill-rule="evenodd" opacity="0.05">
        <g id="confetti" fill-rule="nonzero">
            <path d="M268.713,0 L255.997,10.062 L268.715,0.002 C277.5,11.103 288.432,24.919 288.432,51.053 C288.432,77.187 277.501,91.004 268.717,102.106 C261.334,111.437 256,118.178 256,133.033 C256,147.887 261.334,154.627 268.716,163.958 C277.5,175.059 288.432,188.875 288.432,215.008 C288.432,241.143 277.501,254.957 268.717,266.059 C261.334,275.39 256,282.131 256,296.986 C256,311.841 261.334,318.581 268.717,327.912 C277.501,339.013 288.432,352.829 288.432,378.963 C288.432,405.099 277.501,418.916 268.717,430.017 C261.334,439.35 256,446.092 256,460.95 C256,475.809 261.333,482.55 268.714,491.879 L243.28,512 C234.498,500.9 223.569,487.086 223.569,460.949 C223.569,434.813 234.5,420.996 243.284,409.895 C250.666,400.562 256,393.82 256,378.962 C256,364.107 250.666,357.366 243.283,348.035 C234.499,336.934 223.568,323.118 223.568,296.985 C223.568,270.85 234.499,257.035 243.283,245.934 C250.666,236.603 256,229.862 256,215.007 C256,200.152 250.666,193.412 243.283,184.081 C234.499,172.98 223.568,159.165 223.568,133.032 C223.568,106.897 234.499,93.082 243.283,81.981 C250.666,72.651 256,65.91 256,51.054 C256,36.199 250.665,29.458 243.282,20.127 L268.713,0 Z" id="Shape" fill="#FF709D"></path>
            <g id="Group" transform="translate(64.000000, 0.000000)" fill="#F63E31">
                <path d="M45.299,0 L32.583,10.062 L45.301,0.002 C54.086,11.103 65.017,24.919 65.017,51.053 C65.017,77.187 54.085,91.004 45.301,102.106 C37.919,111.437 32.585,118.178 32.585,133.033 C32.585,147.887 37.919,154.627 45.301,163.958 C54.085,175.059 65.017,188.875 65.017,215.008 C65.017,241.143 54.086,254.957 45.302,266.059 C37.919,275.39 32.585,282.131 32.585,296.986 C32.585,311.841 37.917,318.579 45.296,327.905 L19.861,348.029 C11.08,336.932 0.153,323.12 0.153,296.987 C0.153,270.852 11.084,257.038 19.868,245.936 C27.251,236.605 32.585,229.864 32.585,215.009 C32.585,200.154 27.25,193.414 19.868,184.083 C11.084,172.982 0.153,159.167 0.153,133.034 C0.153,106.901 11.084,93.084 19.868,81.983 C27.251,72.652 32.585,65.911 32.585,51.055 C32.585,36.2 27.25,29.459 19.867,20.128 L45.299,0 Z" id="Shape"></path>
                <path d="M364.127,0 L351.411,10.062 L364.129,0.002 C372.914,11.103 383.845,24.919 383.845,51.053 C383.845,77.187 372.913,91.004 364.129,102.106 C356.747,111.437 351.413,118.178 351.413,133.033 C351.413,147.887 356.747,154.627 364.129,163.958 C372.913,175.059 383.845,188.875 383.845,215.008 C383.845,241.143 372.914,254.957 364.13,266.059 C356.747,275.39 351.413,282.131 351.413,296.986 C351.413,311.841 356.745,318.579 364.124,327.905 L338.689,348.029 C329.908,336.932 318.981,323.12 318.981,296.987 C318.981,270.852 329.912,257.038 338.696,245.936 C346.079,236.605 351.413,229.864 351.413,215.009 C351.413,200.154 346.078,193.414 338.696,184.083 C329.912,172.982 318.981,159.167 318.981,133.034 C318.981,106.901 329.912,93.084 338.696,81.983 C346.079,72.652 351.413,65.911 351.413,51.055 C351.413,36.2 346.078,29.459 338.695,20.128 L364.127,0 Z" id="Shape"></path>
            </g>
            <circle id="Oval" fill="#FFD102" cx="33.094" cy="215.006" r="16.879"></circle>
            <circle id="Oval" fill="#57BAB7" cx="16.879" cy="460.946" r="16.879"></circle>
            <circle id="Oval" fill="#FFD102" cx="176.297" cy="378.97" r="16.879"></circle>
            <circle id="Oval" fill="#57BAB7" cx="160.082" cy="133.03" r="16.879"></circle>
            <circle id="Oval" fill="#FFD102" cx="192.512" cy="51.054" r="16.879"></circle>
            <circle id="Oval" fill="#57BAB7" cx="319.488" cy="297.241" r="16.879"></circle>
            <g id="Group" transform="translate(302.000000, 198.000000)" fill="#FFD102">
                <circle id="Oval" cx="17.488" cy="262.946" r="16.879"></circle>
                <circle id="Oval" cx="49.918" cy="17.006" r="16.879"></circle>
            </g>
            <circle id="Oval" fill="#57BAB7" cx="462.69" cy="460.946" r="16.879"></circle>
            <circle id="Oval" fill="#FFD102" cx="495.121" cy="378.97" r="16.879"></circle>
            <circle id="Oval" fill="#57BAB7" cx="478.906" cy="133.03" r="16.879"></circle>
        </g>
    </g>
</svg>