<?xml version="1.0" encoding="iso-8859-1"?>
<!-- Generator: Adobe Illustrator 19.0.0, SVG Export Plug-In . SVG Version: 6.00 Build 0)  -->
<svg version="1.1" id="Capa_1" xmlns="http://www.w3.org/2000/svg" xmlns:xlink="http://www.w3.org/1999/xlink" x="0px" y="0px"
	 viewBox="0 0 511.754 511.754" style="enable-background:new 0 0 511.754 511.754;" xml:space="preserve">
<g>
	<g>
		<g>
			<path d="M349.742,255.754H162.008c-4.719,0-8.533,3.823-8.533,8.533v119.467c0,4.71,3.814,8.533,8.533,8.533h187.733
				c4.719,0,8.533-3.823,8.533-8.533V264.288C358.275,259.577,354.461,255.754,349.742,255.754z M341.208,375.221H170.542v-102.4
				h170.667V375.221z"/>
			<path d="M460.675,238.688h-24.851l6.736-51.2h9.582c4.719,0,8.533-3.823,8.533-8.533v-34.133c0-4.71-3.814-8.533-8.533-8.533
				h-8.533v-25.6c0-4.71-3.814-8.533-8.533-8.533h-51.2c-4.719,0-8.533,3.823-8.533,8.533v25.6h-40.534l10.674-16.636
				c1.23,0.221,2.477,0.346,3.736,0.346c1.536,0,3.081-0.171,4.617-0.503c5.572-1.22,10.342-4.523,13.841-9.993
				c3.072-4.779,4.096-10.487,2.884-16.068c-0.612-2.797-1.751-5.389-3.337-7.667l22.202-34.611
				c2.714-4.232,3.627-9.276,2.552-14.191c-1.075-4.924-4.011-9.131-8.243-11.853L349.216,2.969
				c-8.721-5.598-20.42-3.046-26.044,5.692l-22.201,34.601c-2.731-0.491-5.561-0.445-8.355,0.159
				c-5.572,1.22-10.342,4.523-13.85,10.001c-4.796,7.477-4.316,16.844,0.468,23.721l-6.293,9.81v-1.864
				c0-4.71-3.814-8.533-8.533-8.533h-76.8c-4.719,0-8.533,3.823-8.533,8.533v44.742l-42.242-42.242
				c-3.337-3.337-8.73-3.337-12.066,0L78.67,133.685c-0.787,0.79-1.429,1.67-1.941,2.603H59.608c-4.719,0-8.533,3.823-8.533,8.533
				v34.133c0,4.71,3.814,8.533,8.533,8.533h9.583l6.736,51.2H51.079c-23.526,0-42.667,19.14-42.667,42.667
				c0,23.526,19.14,42.667,42.667,42.667h36.076l17.651,134.161c4.019,30.541,30.276,53.572,61.082,53.572h179.968
				c30.814,0,57.071-23.031,61.09-53.572l17.651-134.161h36.078c23.526,0,42.667-19.14,42.667-42.667
				C503.342,257.828,484.201,238.688,460.675,238.688z M392.408,119.221h34.133v17.067h-34.133V119.221z M337.534,17.885
				c0.546-0.845,1.647-1.084,2.475-0.546l34.517,22.144c0.708,0.452,0.981,1.758,0.529,2.466l-21.333,33.242l-37.515-24.062
				L337.534,17.885z M293.572,61.946c0.819-1.28,2.039-1.707,2.688-1.852c0.64-0.128,1.937-0.247,3.208,0.572l52.565,33.715
				c1.271,0.828,1.707,2.039,1.852,2.697c0.137,0.64,0.256,1.929-1.007,3.891c-0.819,1.28-2.039,1.707-2.688,1.852
				c-0.662,0.136-1.917,0.253-3.19-0.553l-52.591-33.74C292.47,67.279,291.885,64.579,293.572,61.946z M279.254,108.729l13.474-21
				l12.743,8.174l24.767,15.893l-13.463,20.997c-0.708,1.094-1.341,2.257-1.911,3.494h-93.588
				c11.31-6.358,22.64-10.485,33.53-12.122C265.037,122.622,273.946,116.99,279.254,108.729z M255.875,93.621v12.767
				c-1.154,0.4-2.359,0.71-3.612,0.899c-18.452,2.782-37.706,11.384-56.121,25.024v-38.69H255.875z M130.8,105.687l30.601,30.601
				H100.2L130.8,105.687z M68.142,153.354h17.312h90.692h207.729h51.2h8.533v17.067h-8.537h-358.4h-8.53V153.354z M51.079,306.954
				c-14.123,0-25.6-11.486-25.6-25.6s11.477-25.6,25.6-25.6h27.094l6.736,51.2H51.079z M390.024,455.955
				c-2.91,22.084-21.888,38.733-44.169,38.733H165.888c-22.272,0-41.259-16.648-44.16-38.733L86.408,187.488h338.935
				L390.024,455.955z M460.675,306.954h-33.833l6.736-51.2h27.097c14.114,0,25.6,11.486,25.6,25.6S474.789,306.954,460.675,306.954z
				"/>
			<path d="M204.675,358.154h102.4c4.719,0,8.533-3.823,8.533-8.533s-3.814-8.533-8.533-8.533h-102.4
				c-4.719,0-8.533,3.823-8.533,8.533S199.956,358.154,204.675,358.154z"/>
			<path d="M238.808,315.488h68.267c4.719,0,8.533-3.823,8.533-8.533s-3.814-8.533-8.533-8.533h-68.267
				c-4.719,0-8.533,3.823-8.533,8.533S234.089,315.488,238.808,315.488z"/>
			<path d="M204.675,315.488c4.719,0,8.533-3.823,8.533-8.533s-3.814-8.533-8.533-8.533s-8.533,3.823-8.533,8.533
				S199.956,315.488,204.675,315.488z"/>
		</g>
	</g>
</g>
<g>
</g>
<g>
</g>
<g>
</g>
<g>
</g>
<g>
</g>
<g>
</g>
<g>
</g>
<g>
</g>
<g>
</g>
<g>
</g>
<g>
</g>
<g>
</g>
<g>
</g>
<g>
</g>
<g>
</g>
</svg>
