<?xml version="1.0" encoding="iso-8859-1"?>
<!-- Generator: Adobe Illustrator 19.0.0, SVG Export Plug-In . SVG Version: 6.00 Build 0)  -->
<svg version="1.1" id="Capa_1" xmlns="http://www.w3.org/2000/svg" xmlns:xlink="http://www.w3.org/1999/xlink" x="0px" y="0px"
	 viewBox="0 0 512.002 512.002" style="enable-background:new 0 0 512.002 512.002;" xml:space="preserve">
<g>
	<g>
		<g>
			<path d="M415.591,247.732c-9.834-24.626-54.93-122.484-151.058-128.01v-18.396c5.851-1.5,11.219-4.541,15.599-8.927
				c10.846-10.837,13.116-27.691,5.555-40.986l-2.278-3.942c-2.372-4.079-4.617-7.927-6.349-11.904L263.825,5.129
				C262.477,2.022,259.396,0,256,0c-3.396,0-6.477,2.022-7.825,5.129L234.94,35.567c-1.732,3.977-3.977,7.825-6.349,11.904
				l-2.278,3.934c-7.569,13.303-5.291,30.165,5.555,40.994c4.38,4.386,9.748,7.427,15.599,8.927v18.396
				c-96.127,5.526-141.222,103.384-151.056,128.01c-34.85,3.038-62.276,32.384-62.276,68.002c0,37.641,30.626,68.267,68.267,68.267
				c0.514,0,1.026-0.011,1.537-0.023l24.233,121.163c0.794,3.994,4.292,6.861,8.363,6.861h238.933c4.07,0,7.569-2.867,8.363-6.861
				l24.233-121.163c0.512,0.011,1.024,0.023,1.539,0.023c37.641,0,68.267-30.626,68.267-68.267
				C477.868,280.116,450.441,250.77,415.591,247.732z M241.152,59.844l2.185-3.78c2.526-4.318,5.12-8.789,7.253-13.688L256,29.935
				l5.41,12.442c2.133,4.898,4.727,9.37,7.253,13.688l2.185,3.78c3.789,6.647,2.637,15.07-2.782,20.489
				c-6.451,6.451-17.681,6.46-24.132,0C238.515,74.914,237.363,66.492,241.152,59.844z M120.837,381.5
				c14.621-4.06,27.441-12.902,36.502-25.301c6.337,6.132,13.775,10.957,21.862,14.246v124.49h-35.678L120.837,381.5z
				 M264.533,360.483c11.892,9.597,26.782,14.985,42.668,14.985c2.871,0,5.718-0.202,8.532-0.56v120.028h-51.2V360.483z
				 M247.467,494.935h-51.2V374.907c2.815,0.358,5.663,0.561,8.534,0.561c15.884,0,30.775-5.387,42.666-14.983V494.935z
				 M368.478,494.935H332.8V370.446c8.086-3.289,15.522-8.115,21.855-14.246c9.067,12.4,21.889,21.241,36.51,25.301L368.478,494.935
				z M409.601,366.934c-19.746,0-37.385-11.085-46.046-28.928c-1.314-2.705-3.951-4.523-6.963-4.779
				c-0.23-0.017-0.478-0.026-0.708-0.026c-2.748,0-5.35,1.323-6.955,3.584c-9.617,13.534-25.224,21.615-41.728,21.615
				c-18.108,0-34.509-9.327-43.887-24.943c-3.081-5.137-11.546-5.137-14.635,0c-9.37,15.616-25.771,24.943-43.878,24.943
				c-16.512,0-32.111-8.081-41.728-21.615c-1.741-2.458-4.702-3.831-7.663-3.558c-3.012,0.256-5.649,2.074-6.972,4.779
				c-8.653,17.843-26.3,28.928-46.037,28.928c-28.237,0-51.2-22.963-51.2-51.2c0-28.228,22.963-51.2,51.2-51.2
				c3.678,0,6.929-2.347,8.09-5.828c0.41-1.229,41.921-122.161,145.497-122.172c0.004,0,0.008,0.001,0.012,0.001
				c0.004,0,0.008-0.001,0.013-0.001c103.356,0.009,145.089,120.951,145.499,122.172c1.16,3.482,4.42,5.828,8.09,5.828
				c28.237,0,51.2,22.972,51.2,51.2C460.801,343.971,437.838,366.934,409.601,366.934z"/>
			<path d="M336.186,208.038l-36.838,9.967c-4.54,1.237-7.228,5.922-5.999,10.47c1.024,3.806,4.471,6.306,8.226,6.306
				c0.742,0,1.493-0.102,2.244-0.299l36.83-9.975c4.54-1.229,7.236-5.914,5.999-10.462
				C345.428,209.497,340.743,206.826,336.186,208.038z"/>
			<path d="M190.43,266.895l-25.6-8.533c-4.514-1.51-9.301,0.93-10.786,5.393c-1.493,4.471,0.922,9.301,5.393,10.795l25.6,8.533
				c0.896,0.299,1.809,0.444,2.697,0.444c3.575,0,6.903-2.261,8.09-5.837C197.316,273.219,194.901,268.389,190.43,266.895z"/>
			<path d="M254.029,230.415c-4.651-0.358-8.755,3.311-9.028,8.013l-0.717,12.041c-0.282,4.71,3.311,8.747,8.004,9.028
				c0.179,0.017,0.341,0.017,0.521,0.017c4.48,0,8.243-3.499,8.508-8.021l0.717-12.049
				C262.315,234.742,258.722,230.697,254.029,230.415z"/>
			<path d="M193.766,187.535c-3.337-3.337-8.73-3.337-12.066,0c-3.337,3.336-3.337,8.73,0,12.066l8.533,8.533
				c1.664,1.664,3.849,2.5,6.033,2.5c2.185,0,4.369-0.836,6.033-2.5c3.336-3.337,3.336-8.73,0-12.066L193.766,187.535z"/>
			<path d="M326.033,275.569c-3.337-3.337-8.73-3.337-12.066,0c-3.337,3.336-3.337,8.73,0,12.066l8.533,8.533
				c1.664,1.664,3.849,2.5,6.033,2.5c2.185,0,4.369-0.836,6.033-2.5c3.337-3.337,3.337-8.73,0-12.066L326.033,275.569z"/>
			<path d="M96.367,309.702l-8.533,8.533c-3.336,3.337-3.336,8.73,0,12.066c1.664,1.664,3.849,2.5,6.033,2.5
				c2.185,0,4.369-0.836,6.033-2.5l8.533-8.533c3.337-3.337,3.337-8.73,0-12.066C105.097,306.365,99.703,306.365,96.367,309.702z"/>
			<path d="M262.033,175.119c-3.337-3.337-8.73-3.337-12.066,0s-3.337,8.73,0,12.066l8.533,8.533c1.664,1.664,3.849,2.5,6.033,2.5
				c2.185,0,4.369-0.836,6.033-2.5c3.337-3.336,3.337-8.73,0-12.066L262.033,175.119z"/>
			<path d="M407.1,301.169c-3.336-3.336-8.73-3.336-12.066,0c-3.336,3.337-3.336,8.73,0,12.066l8.533,8.533
				c1.664,1.664,3.849,2.5,6.033,2.5c2.185,0,4.369-0.836,6.033-2.5c3.337-3.337,3.337-8.73,0-12.066L407.1,301.169z"/>
		</g>
	</g>
</g>
<g>
</g>
<g>
</g>
<g>
</g>
<g>
</g>
<g>
</g>
<g>
</g>
<g>
</g>
<g>
</g>
<g>
</g>
<g>
</g>
<g>
</g>
<g>
</g>
<g>
</g>
<g>
</g>
<g>
</g>
</svg>
