<?xml version="1.0" encoding="iso-8859-1"?>
<!-- Generator: Adobe Illustrator 19.0.0, SVG Export Plug-In . SVG Version: 6.00 Build 0)  -->
<svg version="1.1" id="Capa_1" xmlns="http://www.w3.org/2000/svg" xmlns:xlink="http://www.w3.org/1999/xlink" x="0px" y="0px"
	 viewBox="0 0 512 512" style="enable-background:new 0 0 512 512;" xml:space="preserve">
<g>
	<g>
		<g>
			<path d="M119.466,170.668c4.719,0,8.533-3.823,8.533-8.533c0-4.71-3.814-8.533-8.533-8.533s-8.533,3.823-8.533,8.533
				C110.933,166.845,114.747,170.668,119.466,170.668z"/>
			<path d="M494.933,247.468c-4.719,0-8.533,3.823-8.533,8.533s3.814,8.533,8.533,8.533s8.533-3.823,8.533-8.533
				S499.652,247.468,494.933,247.468z"/>
			<path d="M198.766,364.434l11.034,11.034l-11.034,11.034c-3.336,3.336-3.336,8.73,0,12.066c1.664,1.664,3.849,2.5,6.033,2.5
				c2.185,0,4.369-0.836,6.033-2.5l11.034-11.034l11.034,11.034c1.664,1.664,3.849,2.5,6.033,2.5c2.185,0,4.369-0.836,6.033-2.5
				c3.336-3.336,3.336-8.73,0-12.066l-11.034-11.034l11.034-11.034c3.336-3.337,3.336-8.73,0-12.066
				c-3.337-3.337-8.73-3.337-12.066,0l-11.034,11.034l-11.034-11.034c-3.337-3.337-8.73-3.337-12.066,0
				C195.43,355.704,195.43,361.097,198.766,364.434z"/>
			<path d="M267.033,279.101c1.664,1.664,3.849,2.5,6.033,2.5c2.185,0,4.369-0.836,6.033-2.5l11.034-11.034l11.034,11.034
				c1.664,1.664,3.849,2.5,6.033,2.5c2.185,0,4.369-0.836,6.033-2.5c3.336-3.336,3.336-8.73,0-12.066l-11.034-11.034l11.034-11.034
				c3.336-3.337,3.336-8.73,0-12.066c-3.337-3.337-8.73-3.337-12.066,0l-11.034,11.034l-11.034-11.034
				c-3.337-3.337-8.73-3.337-12.066,0c-3.336,3.337-3.336,8.73,0,12.066l11.034,11.034l-11.034,11.034
				C263.697,270.371,263.697,275.764,267.033,279.101z"/>
			<path d="M457.667,391.183c-0.01-0.019-0.018-0.039-0.028-0.058l-19.17-39.938c-0.046-0.098-0.09-0.196-0.14-0.292l-34.694-72.278
				c-0.002-0.005-0.005-0.01-0.007-0.015l-54.011-112.523c-0.027-0.056-0.053-0.112-0.081-0.168L272.221,4.838
				C270.805,1.886,267.818,0,264.533,0s-6.272,1.886-7.689,4.838L71.427,391.124c-0.01,0.02-0.019,0.04-0.029,0.06l-19.354,40.32
				c-1.271,2.637-1.092,5.734,0.452,8.218C54.34,442.675,99.567,512,264.533,512s210.193-69.325,212.036-72.277
				c1.544-2.483,1.724-5.581,0.452-8.218L457.667,391.183z M420.172,352.496c-5.62,3.833-12.225,5.905-19.106,5.905
				c-18.825,0-34.133-15.309-34.133-34.133c0-15.08,10.032-28.114,24.126-32.424L420.172,352.496z M331.864,168.524
				c-6.411,6.751-15.328,10.677-24.664,10.677c-18.825,0-34.133-15.309-34.133-34.133c0-17.775,13.655-32.41,31.246-33.941
				L331.864,168.524z M264.533,28.254l32.032,66.731C273.417,99.893,256,120.477,256,145.068c0,28.237,22.963,51.2,51.2,51.2
				c11.902,0,23.323-4.234,32.379-11.671l44.038,91.744c-19.85,7.186-33.751,26.14-33.751,47.927c0,28.237,22.963,51.2,51.2,51.2
				c9.472,0,18.598-2.612,26.546-7.471l11.672,24.317c-24.966,17.657-77.652,42.887-174.752,42.887
				c-97.096,0-149.781-25.228-174.749-42.885l34.742-72.379c6.445,2.847,13.405,4.331,20.54,4.331c28.237,0,51.2-22.963,51.2-51.2
				c0-19.412-10.745-36.557-27.539-45.216L264.533,28.254z M161.335,243.251c10.916,5.849,17.864,17.109,17.864,29.817
				c0,18.825-15.309,34.133-34.133,34.133c-4.547,0-8.992-0.927-13.14-2.681L161.335,243.251z M264.533,494.933
				c-133.231,0-183.339-47.394-194.833-60.774l12.597-26.244c31.36,21.516,87.075,44.352,182.236,44.352
				c95.165,0,150.881-22.838,182.24-44.355l12.619,26.289C448.059,447.659,398.677,494.933,264.533,494.933z"/>
			<path d="M59.734,76.801c0-14.114,11.486-25.6,25.6-25.6c4.719,0,8.533-3.823,8.533-8.533c0-4.71-3.814-8.533-8.533-8.533
				c-14.114,0-25.6-11.486-25.6-25.6c0-4.71-3.814-8.533-8.533-8.533s-8.533,3.823-8.533,8.533c0,14.114-11.486,25.6-25.6,25.6
				c-4.719,0-8.533,3.823-8.533,8.533c0,4.71,3.814,8.533,8.533,8.533c14.114,0,25.6,11.486,25.6,25.6
				c0,4.71,3.814,8.533,8.533,8.533S59.734,81.511,59.734,76.801z M51.2,51.226c-2.432-3.234-5.316-6.127-8.559-8.559
				c3.243-2.432,6.127-5.325,8.559-8.559c2.432,3.234,5.316,6.127,8.559,8.559C56.517,45.1,53.632,47.992,51.2,51.226z"/>
			<path d="M418.133,93.868h8.533v8.533c0,4.71,3.814,8.533,8.533,8.533s8.533-3.823,8.533-8.533v-8.533h8.533
				c4.719,0,8.533-3.823,8.533-8.533c0-4.71-3.814-8.533-8.533-8.533h-8.533v-8.533c0-4.71-3.814-8.533-8.533-8.533
				s-8.533,3.823-8.533,8.533v8.533h-8.533c-4.719,0-8.533,3.823-8.533,8.533C409.6,90.045,413.414,93.868,418.133,93.868z"/>
		</g>
	</g>
</g>
<g>
</g>
<g>
</g>
<g>
</g>
<g>
</g>
<g>
</g>
<g>
</g>
<g>
</g>
<g>
</g>
<g>
</g>
<g>
</g>
<g>
</g>
<g>
</g>
<g>
</g>
<g>
</g>
<g>
</g>
</svg>
