<?xml version="1.0" encoding="iso-8859-1"?>
<!-- Generator: Adobe Illustrator 19.0.0, SVG Export Plug-In . SVG Version: 6.00 Build 0)  -->
<svg version="1.1" id="Capa_1" xmlns="http://www.w3.org/2000/svg" xmlns:xlink="http://www.w3.org/1999/xlink" x="0px" y="0px"
	 viewBox="0 0 512.003 512.003" style="enable-background:new 0 0 512.003 512.003;" xml:space="preserve">
<g>
	<g>
		<g>
			<path d="M384.002,85.337H315.74v-76.8c0-2.927-1.502-5.649-3.985-7.219c-2.466-1.562-5.581-1.749-8.218-0.486l-179.2,85.333
				c-0.057,0.027-0.108,0.06-0.164,0.088c-0.146,0.074-0.29,0.151-0.432,0.232c-0.119,0.068-0.234,0.139-0.349,0.212
				c-0.108,0.069-0.213,0.141-0.317,0.215c-0.136,0.096-0.268,0.194-0.397,0.297c-0.076,0.061-0.15,0.123-0.223,0.186
				c-0.142,0.121-0.28,0.245-0.412,0.375c-0.059,0.058-0.116,0.117-0.173,0.176c-0.134,0.138-0.263,0.279-0.387,0.426
				c-0.055,0.065-0.108,0.133-0.161,0.2c-0.114,0.143-0.224,0.288-0.328,0.438c-0.059,0.085-0.115,0.173-0.171,0.261
				c-0.087,0.136-0.172,0.273-0.251,0.414c-0.063,0.111-0.12,0.224-0.178,0.338c-0.063,0.125-0.125,0.25-0.182,0.378
				c-0.058,0.131-0.111,0.265-0.163,0.399c-0.046,0.119-0.091,0.238-0.132,0.36c-0.047,0.141-0.089,0.283-0.129,0.427
				c-0.035,0.126-0.068,0.251-0.097,0.379c-0.031,0.136-0.058,0.274-0.083,0.413c-0.026,0.145-0.048,0.289-0.067,0.435
				c-0.015,0.123-0.028,0.247-0.038,0.372c-0.013,0.166-0.022,0.333-0.025,0.5c-0.001,0.062-0.009,0.123-0.009,0.186v409.6
				c0,4.71,3.823,8.533,8.533,8.533h256c4.71,0,8.533-3.823,8.533-8.533V93.87C392.536,89.16,388.713,85.337,384.002,85.337z
				 M298.673,85.337H165.771l132.902-63.283V85.337z M375.469,494.937H136.536V102.403h238.933V494.937z"/>
			<path d="M315.736,443.737H196.269c-4.71,0-8.533,3.823-8.533,8.533c0,4.71,3.823,8.533,8.533,8.533h119.467
				c4.71,0,8.533-3.823,8.533-8.533C324.269,447.56,320.446,443.737,315.736,443.737z"/>
			<path d="M281.602,426.67c4.71,0,8.533-3.823,8.533-8.533s-3.823-8.533-8.533-8.533h-51.2c-4.71,0-8.533,3.823-8.533,8.533
				s3.823,8.533,8.533,8.533H281.602z"/>
			<path d="M179.202,221.87c0,36.637,20.894,67.949,50.131,80.019l-7.21,28.841c-0.64,2.551-0.06,5.257,1.553,7.322
				c1.621,2.074,4.096,3.285,6.724,3.285h17.068v17.067c0,4.71,3.823,8.533,8.533,8.533c4.71,0,8.533-3.823,8.533-8.533v-17.067
				h17.065c2.628,0,5.112-1.212,6.724-3.285c1.621-2.065,2.193-4.77,1.553-7.322l-7.21-28.84
				c29.239-12.069,50.134-43.382,50.134-80.02c0-47.053-34.458-85.333-76.8-85.333S179.202,174.817,179.202,221.87z
				 M266.403,307.203l4.267,17.067h-29.338l4.267-17.067H266.403z M315.736,221.87c0,37.64-26.795,68.267-59.733,68.267
				s-59.733-30.626-59.733-68.267c0-37.641,26.795-68.267,59.733-68.267S315.736,184.229,315.736,221.87z"/>
			<path d="M247.469,170.67c-15.044,0-34.133,20.087-34.133,42.667c0,4.71,3.823,8.533,8.533,8.533c4.71,0,8.533-3.823,8.533-8.533
				c0-14.686,13.065-25.6,17.067-25.6c4.71,0,8.533-3.823,8.533-8.533S252.179,170.67,247.469,170.67z"/>
		</g>
	</g>
</g>
<g>
</g>
<g>
</g>
<g>
</g>
<g>
</g>
<g>
</g>
<g>
</g>
<g>
</g>
<g>
</g>
<g>
</g>
<g>
</g>
<g>
</g>
<g>
</g>
<g>
</g>
<g>
</g>
<g>
</g>
</svg>
