<?xml version="1.0" encoding="iso-8859-1"?>
<!-- Generator: Adobe Illustrator 19.0.0, SVG Export Plug-In . SVG Version: 6.00 Build 0)  -->
<svg version="1.1" id="Capa_1" xmlns="http://www.w3.org/2000/svg" xmlns:xlink="http://www.w3.org/1999/xlink" x="0px" y="0px"
	 viewBox="0 0 512.001 512.001" style="enable-background:new 0 0 512.001 512.001;" xml:space="preserve">
<g>
	<g>
		<g>
			<path d="M506.335,94.291C442.209,71.4,321.751,71.07,255.996,93.299C190.239,71.064,69.789,71.396,5.666,94.295
				C2.27,95.507,0,98.724,0,102.333v315.733c0,2.739,1.314,5.316,3.541,6.921c2.236,1.604,5.086,2.022,7.697,1.178
				c106.675-35.575,185.148-14.216,241.596,8.354c0.182,0.073,0.368,0.133,0.554,0.193c0.056,0.018,0.11,0.041,0.167,0.058
				c0.362,0.109,0.731,0.188,1.102,0.248c0.064,0.01,0.127,0.019,0.191,0.027c0.383,0.053,0.767,0.088,1.153,0.088
				c0.041,0,0.082-0.008,0.123-0.009c0.32-0.004,0.64-0.031,0.96-0.071c0.103-0.013,0.206-0.026,0.309-0.043
				c0.355-0.058,0.707-0.133,1.054-0.237c0.053-0.016,0.105-0.038,0.158-0.055c0.189-0.06,0.378-0.12,0.563-0.195
				c56.457-22.579,134.946-43.921,241.604-8.363c2.586,0.845,5.444,0.435,7.689-1.178c2.227-1.596,3.541-4.173,3.541-6.92V102.33
				C512.001,98.72,509.731,95.503,506.335,94.291z M247.467,414.141c-34.21-12.8-75.537-24.064-125.107-24.064
				c-31.65,0-66.654,4.599-105.293,16.316V108.46c61.432-19.644,168.969-19.644,230.4,0V414.141z M494.934,406.398
				c-99.157-30.097-174.353-13.218-230.4,7.748v-305.69c61.432-19.644,168.969-19.644,230.4,0V406.398z"/>
			<path d="M324.268,213.265h76.8c4.719,0,8.533-3.823,8.533-8.533s-3.814-8.533-8.533-8.533h-76.8
				c-4.719,0-8.533,3.823-8.533,8.533S319.549,213.265,324.268,213.265z"/>
			<path d="M315.734,162.065c0,4.71,3.814,8.533,8.533,8.533h119.467c4.719,0,8.533-3.823,8.533-8.533
				c0-4.71-3.814-8.533-8.533-8.533H324.268C319.549,153.532,315.734,157.354,315.734,162.065z"/>
			<path d="M443.734,324.198h-85.333c-4.719,0-8.533,3.823-8.533,8.533s3.814,8.533,8.533,8.533h85.333
				c4.719,0,8.533-3.823,8.533-8.533S448.453,324.198,443.734,324.198z"/>
			<path d="M324.268,298.598h76.8c4.719,0,8.533-3.823,8.533-8.533c0-4.71-3.814-8.533-8.533-8.533h-76.8
				c-4.719,0-8.533,3.823-8.533,8.533C315.734,294.775,319.549,298.598,324.268,298.598z"/>
			<path d="M443.734,238.865H324.268c-4.719,0-8.533,3.823-8.533,8.533s3.814,8.533,8.533,8.533h119.467
				c4.719,0,8.533-3.823,8.533-8.533S448.453,238.865,443.734,238.865z"/>
			<path d="M443.734,196.198c-4.719,0-8.533,3.823-8.533,8.533s3.814,8.533,8.533,8.533c4.719,0,8.533-3.823,8.533-8.533
				S448.453,196.198,443.734,196.198z"/>
			<path d="M443.734,281.532c-4.719,0-8.533,3.823-8.533,8.533c0,4.71,3.814,8.533,8.533,8.533c4.719,0,8.533-3.823,8.533-8.533
				C452.268,285.354,448.453,281.532,443.734,281.532z"/>
			<path d="M324.268,324.198c-4.719,0-8.533,3.823-8.533,8.533s3.814,8.533,8.533,8.533c4.719,0,8.533-3.823,8.533-8.533
				S328.987,324.198,324.268,324.198z"/>
			<path d="M59.734,213.265c0,36.64,20.892,67.953,50.134,80.022l-7.21,28.838c-0.64,2.551-0.068,5.257,1.553,7.322
				c1.613,2.074,4.096,3.285,6.724,3.285h17.065v17.067c0,4.71,3.814,8.533,8.533,8.533s8.533-3.823,8.533-8.533v-17.067h17.068
				c2.62,0,5.103-1.212,6.724-3.285c1.613-2.065,2.193-4.77,1.545-7.322l-7.209-28.836c29.245-12.067,50.139-43.382,50.139-80.024
				c0-47.053-34.449-85.333-76.8-85.333S59.734,166.212,59.734,213.265z M146.938,298.598l4.267,17.067h-29.338l4.267-17.067
				H146.938z M136.534,144.998c32.93,0,59.733,30.626,59.733,68.267c0,37.641-26.803,68.267-59.733,68.267
				s-59.733-30.626-59.733-68.267C76.801,175.624,103.604,144.998,136.534,144.998z"/>
			<path d="M102.401,213.265c4.719,0,8.533-3.823,8.533-8.533c0-14.686,13.065-25.6,17.067-25.6c4.719,0,8.533-3.823,8.533-8.533
				c0-4.71-3.814-8.533-8.533-8.533c-15.044,0-34.133,20.087-34.133,42.667C93.868,209.442,97.682,213.265,102.401,213.265z"/>
		</g>
	</g>
</g>
<g>
</g>
<g>
</g>
<g>
</g>
<g>
</g>
<g>
</g>
<g>
</g>
<g>
</g>
<g>
</g>
<g>
</g>
<g>
</g>
<g>
</g>
<g>
</g>
<g>
</g>
<g>
</g>
<g>
</g>
</svg>
