<?xml version="1.0" encoding="iso-8859-1"?>
<!-- Generator: Adobe Illustrator 19.0.0, SVG Export Plug-In . SVG Version: 6.00 Build 0)  -->
<svg version="1.1" id="Capa_1" xmlns="http://www.w3.org/2000/svg" xmlns:xlink="http://www.w3.org/1999/xlink" x="0px" y="0px"
	 viewBox="0 0 512 512" style="enable-background:new 0 0 512 512;" xml:space="preserve">
<g>
	<g>
		<g>
			<path d="M42.667,76.8c0,4.71,3.814,8.533,8.533,8.533s8.533-3.823,8.533-8.533c0-14.114,11.486-25.6,25.6-25.6
				c4.719,0,8.533-3.823,8.533-8.533c0-4.71-3.814-8.533-8.533-8.533c-14.114,0-25.6-11.486-25.6-25.6C59.734,3.823,55.919,0,51.2,0
				s-8.533,3.823-8.533,8.533c0,14.114-11.486,25.6-25.6,25.6c-4.719,0-8.533,3.823-8.533,8.533c0,4.71,3.814,8.533,8.533,8.533
				C31.181,51.2,42.667,62.686,42.667,76.8z M51.2,34.108c2.432,3.234,5.316,6.127,8.559,8.559
				c-3.243,2.432-6.127,5.325-8.559,8.559c-2.432-3.234-5.316-6.127-8.559-8.559C45.884,40.235,48.768,37.342,51.2,34.108z"/>
			<path d="M494.933,59.733H486.4V51.2c0-4.71-3.814-8.533-8.533-8.533s-8.533,3.823-8.533,8.533v8.533H460.8
				c-4.719,0-8.533,3.823-8.533,8.533s3.814,8.533,8.533,8.533h8.533v8.533c0,4.71,3.814,8.533,8.533,8.533s8.533-3.823,8.533-8.533
				V76.8h8.533c4.719,0,8.533-3.823,8.533-8.533S499.652,59.733,494.933,59.733z"/>
			<path d="M116.966,463.3c-3.336-3.337-8.73-3.337-12.066,0l-11.034,11.034L82.833,463.3c-3.337-3.337-8.73-3.337-12.066,0
				c-3.336,3.336-3.336,8.73,0,12.066L81.8,486.4l-11.034,11.034c-3.336,3.337-3.336,8.73,0,12.066c1.664,1.664,3.849,2.5,6.033,2.5
				s4.369-0.836,6.033-2.5l11.034-11.034L104.9,509.5c1.664,1.664,3.849,2.5,6.033,2.5c2.185,0,4.369-0.836,6.033-2.5
				c3.337-3.336,3.337-8.73,0-12.066L105.932,486.4l11.034-11.034C120.302,472.03,120.302,466.637,116.966,463.3z"/>
			<path d="M486.4,409.6c-4.719,0-8.533,3.823-8.533,8.533s3.814,8.533,8.533,8.533s8.533-3.823,8.533-8.533
				S491.119,409.6,486.4,409.6z"/>
			<path d="M401.066,469.333c-4.719,0-8.533,3.823-8.533,8.533s3.814,8.533,8.533,8.533c4.719,0,8.533-3.823,8.533-8.533
				S405.785,469.333,401.066,469.333z"/>
			<path d="M264.533,25.6c-127.044,0-230.4,103.356-230.4,230.4s103.356,230.4,230.4,230.4s230.4-103.356,230.4-230.4
				S391.577,25.6,264.533,25.6z M264.533,469.333C146.901,469.333,51.2,373.632,51.2,256S146.901,42.667,264.533,42.667
				S477.866,138.368,477.866,256S382.165,469.333,264.533,469.333z"/>
			<path d="M264.533,170.667c4.719,0,8.533-3.823,8.533-8.533c0-4.71-3.814-8.533-8.533-8.533c-56.465,0-102.4,45.935-102.4,102.4
				c0,4.71,3.814,8.533,8.533,8.533S179.2,260.71,179.2,256C179.2,208.947,217.48,170.667,264.533,170.667z"/>
			<path d="M264.533,85.333c4.719,0,8.533-3.823,8.533-8.533s-3.814-8.533-8.533-8.533C161.015,68.267,76.8,152.482,76.8,256
				c0,4.71,3.814,8.533,8.533,8.533s8.533-3.823,8.533-8.533C93.866,161.894,170.427,85.333,264.533,85.333z"/>
			<path d="M208.256,144.337c4.309-1.911,6.255-6.946,4.344-11.255c-1.911-4.309-6.938-6.272-11.255-4.352
				c-39.219,17.365-61.056,41.941-72.994,82.176c-1.34,4.523,1.237,9.267,5.76,10.607c0.811,0.239,1.621,0.358,2.423,0.358
				c3.686,0,7.083-2.398,8.183-6.11C155.221,180.356,173.636,159.663,208.256,144.337z"/>
			<path d="M264.533,341.333c-4.719,0-8.533,3.823-8.533,8.533s3.814,8.533,8.533,8.533c56.465,0,102.4-45.935,102.4-102.4
				c0-4.71-3.814-8.533-8.533-8.533s-8.533,3.823-8.533,8.533C349.866,303.053,311.586,341.333,264.533,341.333z"/>
			<path d="M264.533,426.667c-4.719,0-8.533,3.823-8.533,8.533s3.814,8.533,8.533,8.533c103.518,0,187.733-84.215,187.733-187.733
				c0-4.71-3.814-8.533-8.533-8.533S435.2,251.29,435.2,256C435.2,350.106,358.638,426.667,264.533,426.667z"/>
			<path d="M320.81,367.663c-4.309,1.911-6.255,6.946-4.343,11.255c1.408,3.191,4.531,5.086,7.808,5.086
				c1.152,0,2.321-0.239,3.447-0.734c39.219-17.365,61.056-41.941,72.994-82.176c1.34-4.523-1.237-9.267-5.76-10.607
				c-4.523-1.34-9.267,1.237-10.607,5.751C373.845,331.644,355.43,352.337,320.81,367.663z"/>
			<path d="M332.8,256c0-37.641-30.626-68.267-68.267-68.267c-37.64,0-68.267,30.626-68.267,68.267
				c0,37.641,30.626,68.267,68.267,68.267C302.173,324.267,332.8,293.641,332.8,256z M213.333,256c0-28.237,22.963-51.2,51.2-51.2
				s51.2,22.963,51.2,51.2s-22.963,51.2-51.2,51.2S213.333,284.237,213.333,256z"/>
			<path d="M298.666,256c0-18.825-15.309-34.133-34.133-34.133c-18.825,0-34.133,15.309-34.133,34.133
				c0,18.825,15.309,34.133,34.133,34.133C283.357,290.133,298.666,274.825,298.666,256z M247.466,256
				c0-9.412,7.654-17.067,17.067-17.067c9.412,0,17.067,7.654,17.067,17.067c0,9.412-7.654,17.067-17.067,17.067
				C255.121,273.067,247.466,265.412,247.466,256z"/>
		</g>
	</g>
</g>
<g>
</g>
<g>
</g>
<g>
</g>
<g>
</g>
<g>
</g>
<g>
</g>
<g>
</g>
<g>
</g>
<g>
</g>
<g>
</g>
<g>
</g>
<g>
</g>
<g>
</g>
<g>
</g>
<g>
</g>
</svg>
