<?xml version="1.0" encoding="iso-8859-1"?>
<!-- Generator: Adobe Illustrator 19.0.0, SVG Export Plug-In . SVG Version: 6.00 Build 0)  -->
<svg version="1.1" id="Capa_1" xmlns="http://www.w3.org/2000/svg" xmlns:xlink="http://www.w3.org/1999/xlink" x="0px" y="0px"
	 viewBox="0 0 512.002 512.002" style="enable-background:new 0 0 512.002 512.002;" xml:space="preserve">
<g>
	<g>
		<g>
			<path d="M405.247,68.269h8.533v8.533c0,4.71,3.823,8.533,8.533,8.533s8.533-3.823,8.533-8.533v-8.533h8.533
				c4.71,0,8.533-3.823,8.533-8.533s-3.823-8.533-8.533-8.533h-8.533v-8.533c0-4.71-3.823-8.533-8.533-8.533
				s-8.533,3.823-8.533,8.533v8.533h-8.533c-4.71,0-8.533,3.823-8.533,8.533S400.536,68.269,405.247,68.269z"/>
			<path d="M69.946,232.903c-3.337-3.337-8.73-3.337-12.066,0l-11.034,11.034l-11.034-11.034c-3.337-3.337-8.73-3.337-12.066,0
				c-3.337,3.337-3.337,8.73,0,12.066l11.034,11.034l-11.034,11.034c-3.337,3.336-3.337,8.73,0,12.066
				c1.664,1.664,3.849,2.5,6.033,2.5c2.185,0,4.369-0.836,6.033-2.5l11.034-11.034l11.034,11.034c1.664,1.664,3.849,2.5,6.033,2.5
				s4.369-0.836,6.033-2.5c3.336-3.336,3.336-8.73,0-12.066l-11.034-11.034l11.034-11.034
				C73.283,241.632,73.283,236.239,69.946,232.903z"/>
			<circle cx="98.047" cy="93.869" r="8.533"/>
			<circle cx="464.98" cy="469.336" r="8.533"/>
			<path d="M462.442,400.751c30.985-32.085,44.1-86.767-0.333-131.004l-5.316-5.35c-11.537-11.647-27.02-27.274-43.013-38.51
				v-38.151c0-4.71-3.823-8.533-8.533-8.533h-67.925c-20.014-39.981-52.452-70.062-84.678-78.504
				c-4.309-1.126-7.663-3.721-9.446-7.287l-10.043-20.08c1.396-1.783,2.509-3.798,3.251-6.012c1.69-5.077,1.306-10.496-1.075-15.258
				c-3.56-7.126-10.828-11.168-18.315-11.017L201.326,9.673c-2.091-4.181-5.675-7.287-10.103-8.772
				c-4.437-1.468-9.173-1.135-13.355,0.947l-31.812,15.906c-4.173,2.091-7.287,5.683-8.764,10.112
				c-1.476,4.429-1.135,9.173,0.947,13.346l15.687,31.367c-4.611,5.892-5.737,14.14-2.172,21.269
				c3.499,6.997,10.573,11.042,17.911,11.042c0.136,0,0.273-0.009,0.409-0.012l10.04,20.08c1.783,3.558,1.843,7.799,0.162,11.921
				c-4.932,12.094-7.279,26.583-6.921,42.322h-58.242c-4.71,0-8.533,3.823-8.533,8.533v51.2c0,4.71,3.823,8.533,8.533,8.533h9.359
				l24.257,237.38c1.715,15.479,13.141,27.153,26.573,27.153h165.299c13.44,0,24.866-11.674,26.573-27.068l6.732-55.949
				c6.475,1.509,12.964,2.229,19.382,2.229C419.554,431.215,444.599,419.234,462.442,400.751z M186.06,17.302l14.819,29.632
				l-32.476,16.241l-14.71-30.154L186.06,17.302z M168.326,82.294l47.812-23.91c0.41-0.205,0.845-0.299,1.28-0.299
				c1.084,0,2.142,0.597,2.645,1.604c0.461,0.93,0.29,1.792,0.145,2.227c-0.145,0.435-0.521,1.229-1.451,1.69l-47.812,23.919
				c-1.434,0.7-3.226,0.102-3.925-1.306C166.312,84.795,166.909,83.003,168.326,82.294z M196.08,143.323
				c3.507-8.619,3.251-18.099-0.708-26.001l-9.165-18.348l32.547-16.276l9.177,18.342c3.951,7.91,11.383,13.807,20.386,16.171
				c25.605,6.706,51.752,30.147,69.676,61.992H190.422C190.065,165.657,191.981,153.367,196.08,143.323z M123.647,196.269h273.067
				v34.133H123.647V196.269z M350.227,482.972c-0.751,6.707-4.975,11.964-9.626,11.964H175.302c-4.651,0-8.875-5.257-9.609-11.895
				L141.63,247.469h236.928l-18.994,157.889c-5.877-3.256-11.683-7.466-17.331-12.757c-17.139-16.064-28.947-34.369-35.123-45.23
				c12.498-5.073,21.336-17.336,21.336-31.636c0-18.825-15.309-34.133-34.133-34.133s-34.133,15.309-34.133,34.133
				c0,16.94,12.399,31.026,28.6,33.678c5.128,9.948,19.006,34.291,41.788,55.638c8.591,8.049,17.621,14.064,26.833,18.283
				L350.227,482.972z M277.247,315.736c0-9.412,7.654-17.067,17.067-17.067c9.412,0,17.067,7.654,17.067,17.067
				c0,9.412-7.654,17.067-17.067,17.067C284.901,332.802,277.247,325.148,277.247,315.736z M395.747,247.469h9.5
				c2.25,0,4.292-0.879,5.817-2.304c12.326,9.762,24.309,21.851,33.603,31.238l5.402,5.436
				c36.25,36.087,25.463,80.794,0.102,107.059c-18.214,18.857-46.094,30.602-74.222,23.112L395.747,247.469z"/>
		</g>
	</g>
</g>
<g>
</g>
<g>
</g>
<g>
</g>
<g>
</g>
<g>
</g>
<g>
</g>
<g>
</g>
<g>
</g>
<g>
</g>
<g>
</g>
<g>
</g>
<g>
</g>
<g>
</g>
<g>
</g>
<g>
</g>
</svg>
