<?xml version="1.0" encoding="iso-8859-1"?>
<!-- Generator: Adobe Illustrator 19.0.0, SVG Export Plug-In . SVG Version: 6.00 Build 0)  -->
<svg version="1.1" id="Capa_1" xmlns="http://www.w3.org/2000/svg" xmlns:xlink="http://www.w3.org/1999/xlink" x="0px" y="0px"
	 viewBox="0 0 512 512" style="enable-background:new 0 0 512 512;" xml:space="preserve">
<g>
	<g>
		<g>
			<path d="M503.467,221.867h-9.078c-2.962-13.577-12.96-24.936-29.366-33.178c-12.518-6.298-26.701-9.489-42.138-9.489h-98.227
				c-0.132,0-0.26,0.008-0.392,0.009V179.2H187.736h-0.003H89.509c-15.445,0-29.619,3.191-42.138,9.489
				c-16.405,8.242-26.403,19.601-29.366,33.178H8.533C3.823,221.867,0,225.69,0,230.4c0,4.71,3.823,8.533,8.533,8.533h8.537
				l0.002,16.961c0,0.036-0.005,0.07-0.005,0.106c0,0.036,0.005,0.07,0.005,0.106l0.004,33.847c-0.001,0.06-0.009,0.119-0.009,0.18
				c0,0.061,0.008,0.12,0.009,0.181l0.002,17.978c0.905,16.87,13.193,51.917,53.291,63.838c7.509,2.236,15.352,3.345,23.356,3.345
				c9.754,0,19.746-1.655,29.636-4.958c43.162-14.413,115.576-47.3,115.533-104.747c0.081-0.846,0.911-9.978,0.057-22.013
				c9.695-7.247,24.894-7.161,34.454,0.264c-0.812,11.712-0.011,20.439,0.055,20.921c0,26.567,15.054,47.856,35.522,64.525
				c0.853,1.105,1.966,1.994,3.253,2.575c23.974,18.473,54.344,30.976,76.8,38.475c9.89,3.311,19.883,4.958,29.636,4.958
				c8.004,0,15.846-1.109,23.356-3.345c40.098-11.921,52.395-46.976,53.299-64.29v-68.907h8.142c4.71,0,8.533-3.823,8.533-8.533
				C512,225.69,508.177,221.867,503.467,221.867z M478.267,307.388c-0.005,0.109-0.229,3.439-1.551,8.346H319.522
				c-6.3-5.204-11.976-10.891-16.606-17.067h175.35L478.267,307.388z M298.667,281.6c-1.697,0-3.274,0.502-4.604,1.357
				c-2.236-5.798-3.508-11.938-3.563-18.424h187.762l0.002,17.067H298.667z M478.259,232.959l0.002,14.508H290.31
				c0.255-5.193,0.837-11.122,2.03-17.067h185.527C477.867,231.292,478.005,232.151,478.259,232.959z M422.886,196.267
				c12.749,0,24.354,2.577,34.475,7.671c5.588,2.809,10.046,5.95,13.401,9.395H297.985c1.561-3.059,3.42-5.882,5.638-8.32
				c5.359-5.888,12.237-8.747,21.035-8.747H422.886z M34.136,230.63c0-0.078,0.009-0.153,0.01-0.23h185.9
				c1.184,5.919,1.768,11.839,2.024,17.067H34.136V230.63z M55.034,203.938c10.12-5.094,21.717-7.671,34.475-7.671h98.225h0.003
				c8.798,0,15.676,2.859,21.035,8.747c2.218,2.438,4.076,5.26,5.637,8.32H41.633C44.988,209.888,49.446,206.748,55.034,203.938z
				 M117.95,354.33c-14.652,4.907-29.432,5.393-42.718,1.442c-16.221-4.825-26.043-13.959-32-22.972h124.382
				C149.29,343.02,130.356,350.186,117.95,354.33z M191.803,316.766c-1.21-0.658-2.596-1.033-4.07-1.033H35.594
				c-1.202-4.521-1.436-7.604-1.458-7.893v-9.173H209.72C204.79,305.246,198.643,311.279,191.803,316.766z M218.393,283.274
				c-1.417-1.047-3.163-1.674-5.059-1.674H34.136v-17.067H221.9c-0.016,0.214-0.027,0.354-0.031,0.41
				C221.869,271.391,220.619,277.499,218.393,283.274z M236.413,225.595c-2.247-10.336-6.128-20.9-12.716-29.328h65.001
				c-6.631,8.483-10.522,19.127-12.765,29.49C263.682,220.068,248.715,220.012,236.413,225.595z M437.162,355.772
				c-13.295,3.942-28.066,3.465-42.718-1.442c-12.382-4.136-31.274-11.286-49.572-21.53H469.06
				C463.088,341.849,453.282,350.978,437.162,355.772z"/>
			<path d="M8.534,59.733c14.114,0,25.6,11.486,25.6,25.6c0,4.71,3.823,8.533,8.533,8.533c4.71,0,8.533-3.823,8.533-8.533
				c0-14.114,11.486-25.6,25.6-25.6c4.71,0,8.533-3.823,8.533-8.533c0-4.71-3.823-8.533-8.533-8.533
				c-14.114,0-25.6-11.486-25.6-25.6c0-4.71-3.823-8.533-8.533-8.533c-4.71,0-8.533,3.823-8.533,8.533
				c0,14.114-11.486,25.6-25.6,25.6c-4.71,0-8.533,3.823-8.533,8.533C0.001,55.91,3.824,59.733,8.534,59.733z M42.668,42.641
				c2.432,3.234,5.316,6.127,8.559,8.559c-3.243,2.432-6.127,5.325-8.559,8.559c-2.432-3.234-5.325-6.127-8.559-8.559
				C37.343,48.768,40.236,45.875,42.668,42.641z"/>
			<path d="M418.133,128h8.533v8.533c0,4.71,3.823,8.533,8.533,8.533s8.533-3.823,8.533-8.533V128h8.533
				c4.71,0,8.533-3.823,8.533-8.533s-3.823-8.533-8.533-8.533h-8.533V102.4c0-4.71-3.823-8.533-8.533-8.533
				s-8.533,3.823-8.533,8.533v8.533h-8.533c-4.71,0-8.533,3.823-8.533,8.533S413.423,128,418.133,128z"/>
			<path d="M202.3,437.7c-3.337-3.336-8.73-3.336-12.066,0L179.2,448.734L168.166,437.7c-3.337-3.336-8.73-3.336-12.066,0
				c-3.337,3.337-3.337,8.73,0,12.066l11.034,11.034L156.1,471.834c-3.337,3.336-3.337,8.73,0,12.066
				c1.664,1.664,3.849,2.5,6.033,2.5c2.185,0,4.369-0.836,6.033-2.5l11.034-11.034l11.034,11.034c1.664,1.664,3.849,2.5,6.033,2.5
				c2.185,0,4.369-0.836,6.033-2.5c3.337-3.337,3.337-8.73,0-12.066L191.266,460.8l11.034-11.034
				C205.636,446.43,205.636,441.037,202.3,437.7z"/>
			<circle cx="42.667" cy="452.267" r="8.533"/>
			<circle cx="273.067" cy="392.533" r="8.533"/>
			<circle cx="494.933" cy="494.933" r="8.533"/>
		</g>
	</g>
</g>
<g>
</g>
<g>
</g>
<g>
</g>
<g>
</g>
<g>
</g>
<g>
</g>
<g>
</g>
<g>
</g>
<g>
</g>
<g>
</g>
<g>
</g>
<g>
</g>
<g>
</g>
<g>
</g>
<g>
</g>
</svg>
