<?xml version="1.0" encoding="iso-8859-1"?>
<!-- Generator: Adobe Illustrator 19.0.0, SVG Export Plug-In . SVG Version: 6.00 Build 0)  -->
<svg version="1.1" id="Capa_1" xmlns="http://www.w3.org/2000/svg" xmlns:xlink="http://www.w3.org/1999/xlink" x="0px" y="0px"
	 viewBox="0 0 512.025 512.025" style="enable-background:new 0 0 512.025 512.025;" xml:space="preserve">
<g transform="translate(-1 -1)">
	<g>
		<g>
			<path d="M167.317,231.425c4.719,0,8.533-3.823,8.533-8.533c0-4.71-3.814-8.533-8.533-8.533s-8.533,3.823-8.533,8.533
				C158.784,227.603,162.598,231.425,167.317,231.425z"/>
			<path d="M312.384,274.092c4.719,0,8.533-3.823,8.533-8.533s-3.814-8.533-8.533-8.533s-8.533,3.823-8.533,8.533
				S307.665,274.092,312.384,274.092z"/>
			<path d="M252.65,214.359c4.719,0,8.533-3.823,8.533-8.533c0-4.71-3.814-8.533-8.533-8.533s-8.533,3.823-8.533,8.533
				C244.117,210.536,247.931,214.359,252.65,214.359z"/>
			<path d="M218.517,308.225c4.719,0,8.533-3.823,8.533-8.533s-3.814-8.533-8.533-8.533c-4.719,0-8.533,3.823-8.533,8.533
				S213.798,308.225,218.517,308.225z"/>
			<path d="M132.132,148.874c-6.135,6.733-17.203,23.441-22.409,59.767c-5.478,38.323-0.512,74.65,14.37,105.054
				c12.365,25.267,37.137,54.263,119.663,54.263h0.717c82.526,0,107.298-28.996,119.671-54.263
				c14.882-30.404,19.849-66.731,14.362-105.054c-5.197-36.352-16.273-53.052-22.417-59.767c-1.613-1.775-3.9-2.782-6.298-2.782
				H138.439C136.041,146.092,133.754,147.099,132.132,148.874z M345.739,163.159c4.548,6.255,11.904,20.164,15.872,47.898
				c5.001,34.918,0.572,67.823-12.8,95.138c-10.189,20.813-31.249,44.698-104.337,44.698h-0.717
				c-73.079,0-94.148-23.885-104.329-44.698c-13.38-27.315-17.801-60.22-12.8-95.138c3.959-27.716,11.324-41.634,15.872-47.898
				H345.739z"/>
			<path d="M467.234,76.784l-52.429-52.42c-11.563-11.58-27.486-16.99-43.588-14.822c-16.171,2.108-30.199,11.494-38.46,25.728
				l-44.944,76.689H154.854l-17.358-26.402c-2.201-4.001,0.354-9.912,5.65-12.975c2.799-1.613,6.025-2.236,8.849-1.715
				c1.382,0.256,3.9,1.05,5.265,3.422c2.364,4.079,7.578,5.478,11.657,3.115c2.739-1.579,4.267-4.446,4.267-7.398
				c0-1.442-0.367-2.91-1.143-4.258c-1.374-2.364-0.785-4.941-0.324-6.263c0.956-2.714,3.106-5.197,5.914-6.81
				c2.807-1.621,6.042-2.253,8.858-1.715c1.374,0.256,3.891,1.041,5.257,3.413c1.62,2.811,4.587,4.342,7.615,4.262
				c1.378-0.035,2.767-0.404,4.042-1.139c4.087-2.355,5.487-7.569,3.123-11.657c-11.964-20.727-31.292-35.55-54.409-41.745
				c-23.108-6.195-47.266-3.021-67.977,8.951C63.41,25.008,48.588,44.328,42.384,67.453c-6.195,23.117-3.021,47.258,8.951,67.985
				c1.579,2.739,4.446,4.267,7.398,4.267c1.451,0,2.918-0.367,4.258-1.143c2.81-1.619,4.35-4.59,4.269-7.617
				c-0.036-1.376-0.407-2.763-1.146-4.039c-0.768-1.331-0.529-3.738,0.623-6.281c1.519-3.337,4.292-6.409,7.433-8.218
				c5.333-3.089,11.802-2.295,14.114,1.698c2.355,4.079,7.586,5.478,11.657,3.123c2.739-1.579,4.267-4.454,4.267-7.398
				c0-1.451-0.367-2.918-1.143-4.258c-1.374-2.372-0.785-4.941-0.324-6.263c0.956-2.714,3.106-5.197,5.914-6.81
				c2.799-1.621,6.025-2.261,8.858-1.715c1.374,0.256,3.891,1.041,5.257,3.413c0.048,0.083,0.104,0.158,0.153,0.239
				c0.038,0.061,0.068,0.124,0.108,0.184l11.398,17.34h-6.738c-0.973,0-1.937,0.171-2.867,0.495
				c-1.536,0.555-37.871,14.336-48.887,91.349c-6.451,45.133-0.401,88.329,17.502,124.902
				c21.369,43.635,62.255,67.441,125.081,72.395v46.835c-24.734,6.248-46.584,21.449-61.103,43.227l-5.734,8.593
				c-1.741,2.62-1.903,5.982-0.418,8.764c1.476,2.773,4.369,4.506,7.518,4.506h170.667c3.157,0,6.042-1.732,7.526-4.506
				c1.485-2.782,1.323-6.144-0.427-8.764l-5.726-8.593c-14.518-21.778-36.366-36.977-61.103-43.226v-46.8
				c62.604-4.867,103.658-28.682,125.082-72.432c17.903-36.574,23.953-79.77,17.502-124.902
				c-11.017-77.013-47.352-90.795-48.896-91.349c-0.922-0.324-1.886-0.495-2.867-0.495h-13.394l29.987-51.174l1.468-0.205
				l0.009-0.009l52.42,52.412c9.668,9.677,26.556,9.668,36.207,0.009c4.83-4.838,7.501-11.264,7.501-18.099
				C474.735,88.048,472.064,81.623,467.234,76.784z M121.044,74.084c-0.137-0.026-0.265-0.051-0.393-0.077
				c-6.869-1.28-14.165,0.034-20.531,3.703c-6.366,3.678-11.162,9.335-13.474,15.932c-0.051,0.12-0.094,0.247-0.137,0.375
				c-6.664-1.34-14.174-0.256-20.872,3.601c-2.935,1.696-5.646,3.903-8.017,6.438c-1.993-10.556-1.61-21.509,1.25-32.192
				c5.018-18.714,17.024-34.355,33.801-44.041c16.768-9.694,36.309-12.254,55.031-7.245c10.409,2.786,19.862,7.743,27.873,14.475
				c-2.228,0.689-4.404,1.632-6.48,2.83c-6.366,3.686-11.162,9.344-13.474,15.932c-0.043,0.12-0.085,0.23-0.128,0.35
				c-0.12-0.026-0.239-0.051-0.358-0.077c-6.869-1.28-14.157,0.034-20.523,3.712C127.914,61.668,123.229,67.598,121.044,74.084z
				 M313.284,495.959H174.95c16.444-21.478,41.89-34.133,69.163-34.133C271.394,461.826,296.84,474.48,313.284,495.959z
				 M252.65,445.118c-2.826-0.231-5.672-0.359-8.538-0.359c-2.862,0-5.706,0.128-8.529,0.358v-43.146
				c2.927,0.072,5.88,0.121,8.893,0.121c2.764,0,5.482-0.04,8.174-0.102V445.118z M358.686,129.025
				c5.12,2.782,28.322,18.466,36.71,77.193c5.982,41.737,0.461,81.493-15.932,114.987c-21.316,43.546-64.205,63.821-135.706,63.821
				c-70.784,0-113.673-20.275-134.989-63.821c-16.393-33.493-21.914-73.25-15.94-114.987c8.363-58.496,31.684-74.385,36.745-77.193
				h148.236h59.332H358.686z M455.159,100.925c-3.217,3.217-8.823,3.217-12.058,0l-52.437-52.429
				c-4.028-4.028-9.523-5.888-15.027-5.111c-5.598,0.725-10.411,3.934-13.218,8.772l-35.063,59.802h-19.763l39.91-68.087
				c5.598-9.643,15.036-15.992,25.95-17.417c10.769-1.442,21.504,2.193,29.286,9.975l52.429,52.42v0.009
				c1.613,1.604,2.5,3.746,2.5,6.033C457.668,97.171,456.781,99.312,455.159,100.925z"/>
		</g>
	</g>
</g>
<g>
</g>
<g>
</g>
<g>
</g>
<g>
</g>
<g>
</g>
<g>
</g>
<g>
</g>
<g>
</g>
<g>
</g>
<g>
</g>
<g>
</g>
<g>
</g>
<g>
</g>
<g>
</g>
<g>
</g>
</svg>
