<?xml version="1.0" encoding="iso-8859-1"?>
<!-- Generator: Adobe Illustrator 19.0.0, SVG Export Plug-In . SVG Version: 6.00 Build 0)  -->
<svg version="1.1" id="Capa_1" xmlns="http://www.w3.org/2000/svg" xmlns:xlink="http://www.w3.org/1999/xlink" x="0px" y="0px"
	 viewBox="0 0 511.999 511.999" style="enable-background:new 0 0 511.999 511.999;" xml:space="preserve">
<g>
	<g>
		<g>
			<path d="M302.931,230.4c0-37.641-30.626-68.267-68.267-68.267c-37.641,0-68.267,30.626-68.267,68.267
				c0,37.641,30.626,68.267,68.267,68.267C272.305,298.667,302.931,268.041,302.931,230.4z M234.665,281.6
				c-28.237,0-51.2-22.963-51.2-51.2s22.963-51.2,51.2-51.2c28.237,0,51.2,22.963,51.2,51.2S262.901,281.6,234.665,281.6z"/>
			<path d="M234.665,196.267c-18.825,0-34.133,15.309-34.133,34.133s15.309,34.133,34.133,34.133
				c18.825,0,34.133-15.309,34.133-34.133S253.489,196.267,234.665,196.267z M234.665,247.467c-9.412,0-17.067-7.654-17.067-17.067
				c0-9.412,7.654-17.067,17.067-17.067c9.412,0,17.067,7.654,17.067,17.067C251.731,239.812,244.077,247.467,234.665,247.467z"/>
			<path d="M473.294,298.666c-3.038,0-6.093,0.521-8.969,1.536c-1.042-4.961-3.149-9.825-6.112-14.037
				c4.551-18.263,6.851-37.006,6.851-55.765c0-127.044-103.356-230.4-230.4-230.4S4.265,103.356,4.265,230.4
				s103.356,230.4,230.4,230.4c28.833,0,56.898-5.256,83.508-15.623c0.59,0.632,1.194,1.276,1.829,1.952v13.67
				c0,31.625,34.202,51.2,65.903,51.2h53.257c23.808,0,42.854-16.358,48.538-41.685c1.835-8.192,3.985-11.145,4.599-11.853
				c6.622-7.646,15.437-20.147,15.437-40.328C507.735,339.626,506.199,298.666,473.294,298.666z M234.665,443.733
				c-117.632,0-213.333-95.701-213.333-213.333S117.033,17.067,234.665,17.067S447.998,112.768,447.998,230.4
				c0,14.808-1.557,29.594-4.62,44.117c-2.666-0.931-5.518-1.451-8.526-1.451c-4.087,0-8.414,0.546-12.45,2.091v-2.091
				c0-30.805-21.205-34.133-30.319-34.133c-4.557,0-8.704,0.87-12.348,2.509v-20.045c0.009-5.692,0.026-17.553-8.218-25.813
				c-5.214-5.205-12.51-7.851-21.7-7.851c-29.815,0-29.815,23.057-29.815,34.133V332.91c-13.961-17.886-39.808-26.556-59.793-19.021
				c-3.285,1.237-6.059,2.97-7.859,4.173c-9.156,6.059-9.216,13.815-9.131,16.973c-0.495,3.883,1.101,5.734,8.201,13.943
				c9.318,10.752,28.698,33.143,40.482,54.306c1.877,4.019,3.354,7.313,4.617,10.104c3.657,8.151,5.789,12.667,9.741,18.018
				C283.339,439.586,259.314,443.733,234.665,443.733z M439.161,494.932h-53.257c-22.878,0-48.326-13.756-48.813-33.559
				c3.143,1.934,6.664,3.881,10.989,6.273l1.621,0.887c1.306,0.725,2.722,1.067,4.122,1.067c3.012,0,5.914-1.587,7.475-4.403
				c2.287-4.122,0.794-9.318-3.337-11.597l-1.621-0.896c-11.041-6.102-15.206-8.41-21.647-14.873
				c-3.017-3.188-5.489-5.819-7.552-8.076c-0.249-0.314-0.515-0.611-0.802-0.883c-8.254-9.117-9.559-12.015-14.257-22.474
				c-1.289-2.867-2.799-6.229-5.001-10.88c-12.911-23.228-33.067-46.524-42.752-57.719c-1.579-1.818-2.893-3.319-3.849-4.446
				c0.196-0.23,0.58-0.597,1.28-1.067c1.801-1.195,3.174-1.946,4.471-2.432c12.706-4.779,33.707,1.562,42.795,17.229
				c0.196,0.333,0.41,0.657,0.649,0.956l10.791,13.884c0.413,0.908,0.983,1.762,1.731,2.509l8.533,8.533
				c1.664,1.664,3.849,2.5,6.033,2.5s4.369-0.836,6.033-2.5c3.337-3.337,3.337-8.73,0-12.066l-5.729-5.729V221.866
				c0-13.244,0.538-17.067,12.749-17.067c4.497,0,7.731,0.956,9.617,2.842c3.251,3.251,3.243,9.813,3.234,14.268v85.224
				c0,0.023-0.003,0.045-0.003,0.068v59.733c0,4.71,3.814,8.533,8.533,8.533s8.533-3.823,8.533-8.533v-59.667
				c0-0.023,0.003-0.045,0.003-0.068v-34.27c0.026-7.757,2.193-16.93,12.348-16.93c6.707,0,13.252,1.314,13.252,17.067v34.066
				c0,0.023-0.003,0.045-0.003,0.068v51.2c0,4.71,3.814,8.533,8.533,8.533c4.719,0,8.533-3.823,8.533-8.533v-51.133
				c0-0.023,0.003-0.045,0.003-0.068v-0.043c0-17.024,6.613-17.024,12.45-17.024c2.616,0,4.986,1.202,6.971,3.059
				c0.446,0.646,0.983,1.228,1.596,1.733c2.854,3.557,4.583,8.435,4.583,12.274v17c0,0.023-0.003,0.045-0.003,0.068v42.667
				c0,4.71,3.814,8.533,8.533,8.533s8.533-3.823,8.533-8.533v-42.6c0-0.023,0.003-0.045,0.003-0.068
				c0-7.919,6.298-8.533,8.226-8.533c14.865,0,17.374,31.59,17.374,102.4c0,6.979-1.434,12.634-3.508,17.307
				c-0.733,0.638-1.375,1.404-1.872,2.304c-2.85,5.171-11.546,11.913-22.664,14.797c-4.565,1.186-7.296,5.845-6.118,10.402
				c0.998,3.849,4.463,6.391,8.252,6.391c0.708,0,1.434-0.085,2.15-0.273c1.288-0.335,2.557-0.724,3.817-1.138
				C466.484,484.624,454.496,494.932,439.161,494.932z"/>
			<path d="M234.665,59.733c4.719,0,8.533-3.823,8.533-8.533s-3.814-8.533-8.533-8.533c-103.518,0-187.733,84.215-187.733,187.733
				c0,4.71,3.814,8.533,8.533,8.533s8.533-3.823,8.533-8.533C63.998,136.294,140.559,59.733,234.665,59.733z"/>
			<path d="M234.665,102.4c0-4.71-3.814-8.533-8.533-8.533c-70.579,0-128,57.421-128,128c0,4.71,3.814,8.533,8.533,8.533
				c4.719,0,8.533-3.823,8.533-8.533c0-61.167,49.766-110.933,110.933-110.933C230.85,110.933,234.665,107.11,234.665,102.4z"/>
		</g>
	</g>
</g>
<g>
</g>
<g>
</g>
<g>
</g>
<g>
</g>
<g>
</g>
<g>
</g>
<g>
</g>
<g>
</g>
<g>
</g>
<g>
</g>
<g>
</g>
<g>
</g>
<g>
</g>
<g>
</g>
<g>
</g>
</svg>
