<?xml version="1.0" encoding="iso-8859-1"?>
<!-- Generator: Adobe Illustrator 19.0.0, SVG Export Plug-In . SVG Version: 6.00 Build 0)  -->
<svg version="1.1" id="Capa_1" xmlns="http://www.w3.org/2000/svg" xmlns:xlink="http://www.w3.org/1999/xlink" x="0px" y="0px"
	 viewBox="0 0 512 512" style="enable-background:new 0 0 512 512;" xml:space="preserve">
<g>
	<g>
		<g>
			<path d="M443.733,34.133h8.533v8.533c0,4.71,3.814,8.533,8.533,8.533c4.719,0,8.533-3.823,8.533-8.533v-8.533h8.533
				c4.719,0,8.533-3.823,8.533-8.533c0-4.71-3.814-8.533-8.533-8.533h-8.533V8.533c0-4.71-3.814-8.533-8.533-8.533
				c-4.719,0-8.533,3.823-8.533,8.533v8.533h-8.533c-4.719,0-8.533,3.823-8.533,8.533C435.2,30.31,439.014,34.133,443.733,34.133z"
				/>
			<path d="M65.766,446.234c-3.337-3.337-8.73-3.337-12.066,0l-11.034,11.034l-11.034-11.034c-3.337-3.337-8.73-3.337-12.066,0
				c-3.337,3.336-3.337,8.73,0,12.066l11.034,11.034l-11.034,11.034c-3.337,3.337-3.337,8.73,0,12.066
				c1.664,1.664,3.849,2.5,6.033,2.5c2.185,0,4.369-0.836,6.033-2.5l11.034-11.034L53.7,492.433c1.664,1.664,3.849,2.5,6.033,2.5
				s4.369-0.836,6.033-2.5c3.336-3.337,3.336-8.73,0-12.066l-11.034-11.034L65.766,458.3
				C69.103,454.963,69.103,449.57,65.766,446.234z"/>
			<circle cx="59.733" cy="384" r="8.533"/>
			<circle cx="290.133" cy="469.333" r="8.533"/>
			<path d="M179.2,51.2c0-4.71-3.823-8.533-8.533-8.533c-21.854,0-45.867,6.869-64.256,18.364c-4.002,2.5-5.214,7.765-2.714,11.759
				c1.621,2.586,4.403,4.011,7.245,4.011c1.544,0,3.106-0.418,4.514-1.297c15.556-9.728,36.71-15.77,55.211-15.77
				C175.377,59.733,179.2,55.91,179.2,51.2z"/>
			<path d="M93.227,83.456c-3.49-3.166-8.9-2.884-12.049,0.623c-24.457,27.085-38.494,64.87-38.511,103.654
				c0,4.71,3.814,8.533,8.533,8.533c4.71,0,8.533-3.814,8.533-8.533c0.017-34.611,12.45-68.224,34.116-92.228
				C97.007,92.015,96.725,86.613,93.227,83.456z"/>
			<path d="M401.067,426.667c4.719,0,8.533-3.823,8.533-8.533v-30.19C468.42,371.798,512,314.939,512,247.467
				c0-79.991-61.252-145.067-136.533-145.067c-16.702,0-33.02,3.242-48.642,9.628C300.312,46.112,240.297,0,170.667,0
				C76.561,0,0,84.215,0,187.733c0,90.663,58.728,166.517,136.533,183.959v29.375c0,4.71,3.823,8.533,8.533,8.533h17.067v34.133
				c0,14.114,11.486,25.6,25.6,25.6c4.702,0,8.533,3.831,8.533,8.533v8.533c0,4.702-3.831,8.533-8.533,8.533
				c-4.71,0-8.533,3.823-8.533,8.533s3.823,8.533,8.533,8.533c14.114,0,25.6-11.486,25.6-25.6v-8.533
				c0-14.114-11.486-25.6-25.6-25.6c-4.702,0-8.533-3.831-8.533-8.533V409.6h17.067c4.71,0,8.533-3.823,8.533-8.533v-29.375
				c24.11-5.405,46.382-16.425,65.648-31.75c18.442,23.605,43.379,40.285,70.885,47.911v30.28c0,4.71,3.823,8.533,8.533,8.533
				h17.067v17.067c0,14.114,11.486,25.6,25.6,25.6c4.702,0,8.533,3.831,8.533,8.533v8.533c0,4.702-3.831,8.533-8.533,8.533
				c-4.71,0-8.533,3.823-8.533,8.533s3.823,8.533,8.533,8.533c14.114,0,25.6-11.486,25.6-25.6v-8.533
				c0-14.114-11.486-25.6-25.6-25.6c-4.702,0-8.533-3.831-8.533-8.533v-17.067H401.067z M17.067,187.733
				c0-94.106,68.907-170.667,153.6-170.667s153.6,76.561,153.6,170.667S255.36,358.4,170.667,358.4S17.067,281.839,17.067,187.733z
				 M187.733,375.467v17.067H153.6v-17.067H187.733z M283.292,328.657c35.561-34.43,58.041-84.839,58.041-140.924
				c0-20.823-3.103-40.862-8.818-59.594c13.801-5.752,28.215-8.673,42.952-8.673c65.877,0,119.467,57.421,119.467,128
				s-53.589,128-119.467,128C339.877,375.467,305.92,358.096,283.292,328.657z M358.4,392.533h34.133V409.6H358.4V392.533z"/>
		</g>
	</g>
</g>
<g>
</g>
<g>
</g>
<g>
</g>
<g>
</g>
<g>
</g>
<g>
</g>
<g>
</g>
<g>
</g>
<g>
</g>
<g>
</g>
<g>
</g>
<g>
</g>
<g>
</g>
<g>
</g>
<g>
</g>
</svg>
